<svg width="0" height="0" class="hidden">
  <symbol xmlns="http://www.w3.org/2000/svg" viewBox="0 0 20 20" id="arrow">
    <path fill-rule="evenodd" clip-rule="evenodd" d="M3 10v1h11v3l4-3.5L14 7v3H3z"></path>
  </symbol>
  <symbol xmlns="http://www.w3.org/2000/svg" viewBox="0 0 20 20" id="search">
    <path fill-rule="evenodd" clip-rule="evenodd" d="M18.435 17.395l-4.289-4.455a7.238 7.238 0 001.707-4.673C15.853 4.26 12.59 1 8.577 1S1.3 4.26 1.3 8.267c0 4.008 3.264 7.268 7.277 7.268a7.206 7.206 0 004.168-1.315l4.322 4.49c.181.187.424.29.684.29a.948.948 0 00.684-1.605zm-9.858-14.5a5.381 5.381 0 015.378 5.372 5.381 5.381 0 01-5.378 5.372 5.381 5.381 0 01-5.379-5.372 5.381 5.381 0 015.379-5.371z"></path>
  </symbol>
  <symbol xmlns="http://www.w3.org/2000/svg" viewBox="0 0 20 20" id="bookmark">
    <path fill-rule="evenodd" clip-rule="evenodd" d="M5 1h10a2 2 0 012 2v16l-6.905-5L3 19V3a2 2 0 012-2z"></path>
  </symbol>
  <symbol xmlns="http://www.w3.org/2000/svg" viewBox="0 0 15 15" id="comment">
    <path fill-rule="evenodd" clip-rule="evenodd" d="M11.135 12v3L8.36 12H2.25a1.5 1.5 0 01-1.5-1.5V3a1.5 1.5 0 011.5-1.5h10.5a1.5 1.5 0 011.5 1.5v7.5a1.5 1.5 0 01-1.5 1.5h-1.615z"></path>
  </symbol>
  <symbol xmlns="http://www.w3.org/2000/svg" viewBox="0 0 20 20" id="download">
    <path fill-rule="evenodd" clip-rule="evenodd" d="M18 13.426c0-.237.263-.426.5-.426s.5.189.5.426v4.134a.44.44 0 01-.432.44H2.426A.435.435 0 012 17.56v-4.134c0-.237.263-.426.5-.426s.5.189.5.426V17h15v-3.574zM11 1v10h3l-3.5 4L7 11h3V1h1z"></path>
  </symbol>
  <symbol xmlns="http://www.w3.org/2000/svg" viewBox="0 0 20 20" id="facebook">
    <path fill-rule="evenodd" clip-rule="evenodd" d="M14.623 1.004L12.225 1C9.53 1 7.789 2.739 7.789 5.43v2.042H5.377A.372.372 0 005 7.84v2.96c0 .203.169.367.377.367H7.79v7.467c0 .203.169.367.377.367h3.146a.372.372 0 00.378-.367v-7.467h2.82a.372.372 0 00.377-.367V7.84c0-.097-.04-.19-.11-.26a.383.383 0 00-.267-.107h-2.82V5.741c0-.832.203-1.255 1.317-1.255h1.616A.372.372 0 0015 4.119V1.37a.372.372 0 00-.377-.367z"></path>
  </symbol>
  <symbol xmlns="http://www.w3.org/2000/svg" viewBox="0 0 56 72" id="file">
    <path fill-rule="evenodd" clip-rule="evenodd" d="M40 0l16 16v52a4 4 0 01-4 4H4a4 4 0 01-4-4V4a4 4 0 014-4h36zm-4 20V4H4v64h48V20H36z"></path>
  </symbol>
  <symbol xmlns="http://www.w3.org/2000/svg" viewBox="0 0 15 15" id="heart">
    <path fill-rule="evenodd" clip-rule="evenodd" d="M12.84 2.96c-.67-.748-1.56-1.16-2.505-1.16-.947 0-1.74.412-2.41 1.16l-.425.68-.425-.68c-.669-.748-1.463-1.16-2.41-1.16-.945 0-1.835.412-2.504 1.16C.78 4.506.78 7.02 2.16 8.564l4.949 4.757a.523.523 0 00.393.179c.14 0 .28-.06.387-.18l4.95-4.756c1.38-1.544 1.38-4.058 0-5.604z"></path>
  </symbol>
  <symbol xmlns="http://www.w3.org/2000/svg" viewBox="0 0 18 18" id="instagram">
    <path fill-rule="evenodd" clip-rule="evenodd" d="M9 .5c2.309 0 2.598.01 3.505.051.904.041 1.522.185 2.063.395a4.166 4.166 0 011.505.98c.473.473.764.947.98 1.506.21.54.355 1.159.396 2.063.041.907.051 1.197.051 3.505 0 2.309-.01 2.598-.051 3.505-.041.904-.185 1.522-.395 2.063a4.167 4.167 0 01-.98 1.505 4.167 4.167 0 01-1.506.98c-.54.21-1.159.355-2.063.396-.907.041-1.197.051-3.505.051s-2.598-.01-3.505-.051c-.904-.041-1.522-.185-2.063-.395a4.167 4.167 0 01-1.505-.98 4.166 4.166 0 01-.98-1.506c-.21-.54-.355-1.159-.396-2.063C.51 11.598.5 11.308.5 9s.01-2.598.051-3.505c.041-.904.185-1.522.395-2.063a4.166 4.166 0 01.98-1.505 4.166 4.166 0 011.506-.98C3.972.736 4.591.591 5.495.55 6.402.51 6.692.5 9 .5zm-.003 11.33a2.833 2.833 0 100-5.665 2.833 2.833 0 000 5.665zm0-7.196a4.363 4.363 0 110 8.727 4.363 4.363 0 010-8.727zm5.859-.262a1.039 1.039 0 11-2.078 0 1.039 1.039 0 012.078 0z"></path>
  </symbol>
  <symbol xmlns="http://www.w3.org/2000/svg" viewBox="0 0 20 20" id="twitter">
    <path fill-rule="evenodd" clip-rule="evenodd" d="M18.979 4.363a.088.088 0 00-.105-.025 7.151 7.151 0 01-1.687.517 3.777 3.777 0 001.317-1.867.09.09 0 00-.03-.098.089.089 0 00-.101-.008 7.177 7.177 0 01-2.245.875 3.745 3.745 0 00-2.7-1.157c-2.066 0-3.746 1.696-3.746 3.78 0 .253.024.503.072.745A10.298 10.298 0 012.4 3.31a.09.09 0 00-.147.012 3.806 3.806 0 00-.507 1.9 3.79 3.79 0 001.41 2.958 3.557 3.557 0 01-1.307-.426.088.088 0 00-.088 0 .09.09 0 00-.045.077v.048a3.79 3.79 0 002.633 3.612 3.57 3.57 0 01-1.245-.018.09.09 0 00-.102.116A3.752 3.752 0 006.253 14.2a7.155 7.155 0 01-4.292 1.412c-.287 0-.577-.017-.861-.051a.09.09 0 00-.095.059.09.09 0 00.036.106A10.38 10.38 0 006.694 17.4c6.568 0 10.492-5.385 10.492-10.591 0-.145-.002-.29-.008-.433a7.51 7.51 0 001.807-1.905.091.091 0 00-.006-.108z"></path>
  </symbol>
  <symbol xmlns="http://www.w3.org/2000/svg" viewBox="0 0 20 20" id="youTube">
    <path fill-rule="evenodd" clip-rule="evenodd" d="M10 2.8c-2.898 0-6.66.73-6.66.73l-.009.01A2.77 2.77 0 001 6.277v7.445a2.778 2.778 0 002.338 2.743l.003.004S7.102 17.2 10 17.2c2.898 0 6.66-.73 6.66-.73A2.78 2.78 0 0019 13.722V6.277a2.778 2.778 0 00-2.338-2.744C16.66 3.53 12.898 2.8 10 2.8zM8.2 6.85L13.6 10l-5.4 3.15v-6.3z"></path>
  </symbol>
  <symbol xmlns="http://www.w3.org/2000/svg" viewBox="0 0 20 15" id="images">
    <path fill-rule="evenodd" clip-rule="evenodd" d="M3.5 3V1a1 1 0 011-1h14a1 1 0 011 1v10a1 1 0 01-1 1h-2v2a1 1 0 01-1 1h-14a1 1 0 01-1-1V4a1 1 0 011-1h2zm12 9h-11a1 1 0 01-1-1V4h-2v10h14v-2zM4.5 1v10h14V1h-14zm14 10h-14v-1l3-3 3 2 4-4 4 5v1zM10 6a1.5 1.5 0 110-3 1.5 1.5 0 010 3z"></path>
  </symbol>
  <symbol xmlns="http://www.w3.org/2000/svg" viewBox="0 0 18 17" id="home">
    <path fill-rule="evenodd" clip-rule="evenodd" d="M2 17h5v-6h4v6h5v-7h2L9 0 0 10h2v7z"></path>
  </symbol>
  <symbol xmlns="http://www.w3.org/2000/svg" viewBox="0 0 15 15" id="clock">
    <path fill-rule="evenodd" clip-rule="evenodd" d="M7.5 14.25a6.75 6.75 0 110-13.5 6.75 6.75 0 010 13.5zm.75-6.75v-3a.75.75 0 00-1.5 0v3.75c0 .414.336.75.75.75h2.25a.75.75 0 000-1.5h-1.5z"></path>
  </symbol>
   <symbol xmlns="http://www.w3.org/2000/svg" viewBox="0 0 15 11" id="eye">
    <path fill-rule="evenodd" clip-rule="evenodd" d="M15 5.262s-3 5.113-7.5 5.113S0 5.262 0 5.262 3 .625 7.5.625 15 5.262 15 5.262zM7.5 2.875a2.629 2.629 0 012.625 2.626A2.626 2.626 0 117.5 2.875zm-.001 3.938c.724 0 1.31-.591 1.31-1.316 0-.726-.587-1.317-1.31-1.317-.724 0-1.311.59-1.311 1.316 0 .726.587 1.317 1.31 1.317z"></path>
  </symbol>
  <symbol xmlns="http://www.w3.org/2000/svg" viewBox="0 0 18 18" id="pencil">
    <path fill-rule="evenodd" clip-rule="evenodd" d="M0 14.2V18h3.8l11-11.1L11 3.1 0 14.2zM17.7 4c.4-.4.4-1 0-1.4L15.4.3c-.4-.4-1-.4-1.4 0l-1.8 1.8L16 5.9 17.7 4z"></path>
  </symbol>
</svg>